<?xml version="1.0" encoding="UTF-8" standalone="no"?>
<!DOCTYPE svg PUBLIC "-//W3C//DTD SVG 1.1//EN"
 "http://www.w3.org/Graphics/SVG/1.1/DTD/svg11.dtd">
<!-- Generated by graphviz version 2.36.0 (20140111.2315)
 -->
<!-- Title: components Pages: 1 -->
<svg width="290pt" height="620pt"
 viewBox="0.00 0.00 290.00 620.00" xmlns="http://www.w3.org/2000/svg" xmlns:xlink="http://www.w3.org/1999/xlink">
<g id="graph0" class="graph" transform="scale(1 1) rotate(0) translate(4 616)">
<title>components</title>
<polygon fill="white" stroke="none" points="-4,4 -4,-616 286,-616 286,4 -4,4"/>
<!-- layout -->
<g id="node1" class="node"><title>layout</title>
<polygon fill="none" stroke="black" points="75,-180 21,-180 21,-144 75,-144 75,-180"/>
<text text-anchor="middle" x="48" y="-158.3" font-family="Times,serif" font-size="14.00">layout</text>
</g>
<!-- render_process -->
<g id="node12" class="node"><title>render_process</title>
<ellipse fill="none" stroke="black" cx="107" cy="-90" rx="39.9464" ry="18"/>
<text text-anchor="middle" x="107" y="-86.3" font-family="Times,serif" font-size="14.00">renderer</text>
</g>
<!-- layout&#45;&gt;render_process -->
<g id="edge8" class="edge"><title>layout&#45;&gt;render_process</title>
<path fill="none" stroke="black" d="M62.5843,-143.697C69.8687,-135.054 78.7998,-124.458 86.7382,-115.039"/>
<polygon fill="black" stroke="black" points="89.6239,-117.047 93.3924,-107.145 84.2715,-112.535 89.6239,-117.047"/>
</g>
<!-- display -->
<g id="node2" class="node"><title>display</title>
<polygon fill="none" stroke="black" points="134.5,-36 79.5,-36 79.5,-0 134.5,-0 134.5,-36"/>
<text text-anchor="middle" x="107" y="-14.3" font-family="Times,serif" font-size="14.00">display</text>
</g>
<!-- input_channel -->
<g id="node3" class="node"><title>input_channel</title>
<polygon fill="none" stroke="black" points="174.316,-522 140.658,-540 73.3421,-540 39.6842,-522 73.3421,-504 140.658,-504 174.316,-522"/>
<text text-anchor="middle" x="107" y="-518.3" font-family="Times,serif" font-size="14.00">input channel</text>
</g>
<!-- input_processor -->
<g id="node8" class="node"><title>input_processor</title>
<ellipse fill="none" stroke="black" cx="107" cy="-450" rx="63.0666" ry="18"/>
<text text-anchor="middle" x="107" y="-446.3" font-family="Times,serif" font-size="14.00">state processor</text>
</g>
<!-- input_channel&#45;&gt;input_processor -->
<g id="edge4" class="edge"><title>input_channel&#45;&gt;input_processor</title>
<path fill="none" stroke="black" d="M107,-503.697C107,-495.983 107,-486.712 107,-478.112"/>
<polygon fill="black" stroke="black" points="110.5,-478.104 107,-468.104 103.5,-478.104 110.5,-478.104"/>
</g>
<!-- render_channel -->
<g id="node4" class="node"><title>render_channel</title>
<polygon fill="none" stroke="black" points="238.198,-162 202.099,-180 129.901,-180 93.8022,-162 129.901,-144 202.099,-144 238.198,-162"/>
<text text-anchor="middle" x="166" y="-158.3" font-family="Times,serif" font-size="14.00">render channel</text>
</g>
<!-- render_channel&#45;&gt;render_process -->
<g id="edge11" class="edge"><title>render_channel&#45;&gt;render_process</title>
<path fill="none" stroke="black" d="M151.416,-143.697C144.131,-135.054 135.2,-124.458 127.262,-115.039"/>
<polygon fill="black" stroke="black" points="129.729,-112.535 120.608,-107.145 124.376,-117.047 129.729,-112.535"/>
</g>
<!-- timer_input -->
<g id="node5" class="node"><title>timer_input</title>
<ellipse fill="none" stroke="black" cx="29" cy="-594" rx="29.3479" ry="18"/>
<text text-anchor="middle" x="29" y="-590.3" font-family="Times,serif" font-size="14.00">timer</text>
</g>
<!-- timer_input&#45;&gt;input_channel -->
<g id="edge1" class="edge"><title>timer_input&#45;&gt;input_channel</title>
<path fill="none" stroke="black" d="M45.1617,-578.496C55.2407,-569.451 68.462,-557.585 80.0915,-547.149"/>
<polygon fill="black" stroke="black" points="82.7253,-549.488 87.8301,-540.204 78.0499,-544.278 82.7253,-549.488"/>
</g>
<!-- audio_input -->
<g id="node6" class="node"><title>audio_input</title>
<ellipse fill="none" stroke="black" cx="107" cy="-594" rx="30.3206" ry="18"/>
<text text-anchor="middle" x="107" y="-590.3" font-family="Times,serif" font-size="14.00">audio</text>
</g>
<!-- audio_input&#45;&gt;input_channel -->
<g id="edge2" class="edge"><title>audio_input&#45;&gt;input_channel</title>
<path fill="none" stroke="black" d="M107,-575.697C107,-567.983 107,-558.712 107,-550.112"/>
<polygon fill="black" stroke="black" points="110.5,-550.104 107,-540.104 103.5,-550.104 110.5,-550.104"/>
</g>
<!-- button_input -->
<g id="node7" class="node"><title>button_input</title>
<ellipse fill="none" stroke="black" cx="219" cy="-594" rx="63.5411" ry="18"/>
<text text-anchor="middle" x="219" y="-590.3" font-family="Times,serif" font-size="14.00">NES controller</text>
</g>
<!-- button_input&#45;&gt;input_channel -->
<g id="edge3" class="edge"><title>button_input&#45;&gt;input_channel</title>
<path fill="none" stroke="black" d="M193.865,-577.291C178.955,-567.972 159.799,-555.999 143.272,-545.67"/>
<polygon fill="black" stroke="black" points="144.739,-542.459 134.404,-540.127 141.029,-548.395 144.739,-542.459"/>
</g>
<!-- event_handler -->
<g id="node9" class="node"><title>event_handler</title>
<polygon fill="none" stroke="black" points="107,-396 54.9114,-378 107,-360 159.089,-378 107,-396"/>
<text text-anchor="middle" x="107" y="-374.3" font-family="Times,serif" font-size="14.00">handler</text>
</g>
<!-- input_processor&#45;&gt;event_handler -->
<g id="edge5" class="edge"><title>input_processor&#45;&gt;event_handler</title>
<path fill="none" stroke="black" d="M107,-431.697C107,-423.983 107,-414.712 107,-406.112"/>
<polygon fill="black" stroke="black" points="110.5,-406.104 107,-396.104 103.5,-406.104 110.5,-406.104"/>
</g>
<!-- state_agent -->
<g id="node10" class="node"><title>state_agent</title>
<ellipse fill="none" stroke="black" cx="166" cy="-306" rx="48.1437" ry="18"/>
<text text-anchor="middle" x="166" y="-302.3" font-family="Times,serif" font-size="14.00">state agent</text>
</g>
<!-- event_handler&#45;&gt;state_agent -->
<g id="edge6" class="edge"><title>event_handler&#45;&gt;state_agent</title>
<path fill="none" stroke="black" d="M118.097,-363.834C125.887,-354.592 136.527,-341.968 145.801,-330.965"/>
<polygon fill="black" stroke="black" points="148.483,-333.213 152.252,-323.311 143.131,-328.702 148.483,-333.213"/>
</g>
<!-- render_watch -->
<g id="node11" class="node"><title>render_watch</title>
<polygon fill="none" stroke="black" points="166,-252 120.942,-234 166,-216 211.058,-234 166,-252"/>
<text text-anchor="middle" x="166" y="-230.3" font-family="Times,serif" font-size="14.00">watch</text>
</g>
<!-- state_agent&#45;&gt;render_watch -->
<g id="edge9" class="edge"><title>state_agent&#45;&gt;render_watch</title>
<path fill="none" stroke="black" d="M166,-287.697C166,-279.983 166,-270.712 166,-262.112"/>
<polygon fill="black" stroke="black" points="169.5,-262.104 166,-252.104 162.5,-262.104 169.5,-262.104"/>
</g>
<!-- render_watch&#45;&gt;render_channel -->
<g id="edge10" class="edge"><title>render_watch&#45;&gt;render_channel</title>
<path fill="none" stroke="black" d="M166,-215.697C166,-207.983 166,-198.712 166,-190.112"/>
<polygon fill="black" stroke="black" points="169.5,-190.104 166,-180.104 162.5,-190.104 169.5,-190.104"/>
</g>
<!-- render_process&#45;&gt;display -->
<g id="edge12" class="edge"><title>render_process&#45;&gt;display</title>
<path fill="none" stroke="black" d="M107,-71.6966C107,-63.9827 107,-54.7125 107,-46.1124"/>
<polygon fill="black" stroke="black" points="110.5,-46.1043 107,-36.1043 103.5,-46.1044 110.5,-46.1043"/>
</g>
<!-- ring_server -->
<g id="node13" class="node"><title>ring_server</title>
<ellipse fill="none" stroke="black" cx="226" cy="-378" rx="48.6179" ry="18"/>
<text text-anchor="middle" x="226" y="-374.3" font-family="Times,serif" font-size="14.00">ring server</text>
</g>
<!-- ring_server&#45;&gt;state_agent -->
<g id="edge7" class="edge"><title>ring_server&#45;&gt;state_agent</title>
<path fill="none" stroke="black" d="M211.781,-360.411C204.309,-351.693 195.01,-340.845 186.749,-331.208"/>
<polygon fill="black" stroke="black" points="189.282,-328.785 180.117,-323.47 183.968,-333.34 189.282,-328.785"/>
</g>
</g>
</svg>
