<?xml version="1.0" encoding="UTF-8" standalone="no"?>
<!DOCTYPE svg PUBLIC "-//W3C//DTD SVG 1.1//EN"
 "http://www.w3.org/Graphics/SVG/1.1/DTD/svg11.dtd">
<!-- Generated by graphviz version 2.36.0 (20140111.2315)
 -->
<!-- Title: components Pages: 1 -->
<svg width="472pt" height="678pt"
 viewBox="0.00 0.00 472.00 678.00" xmlns="http://www.w3.org/2000/svg" xmlns:xlink="http://www.w3.org/1999/xlink">
<g id="graph0" class="graph" transform="scale(1 1) rotate(0) translate(4 674)">
<title>components</title>
<polygon fill="white" stroke="none" points="-4,4 -4,-674 468,-674 468,4 -4,4"/>
<!-- state_agent -->
<g id="node1" class="node"><title>state_agent</title>
<ellipse fill="none" stroke="black" cx="331" cy="-254" rx="48.1437" ry="18"/>
<text text-anchor="middle" x="331" y="-250.3" font-family="Times,serif" font-size="14.00">state agent</text>
</g>
<!-- render_channel -->
<g id="node4" class="node"><title>render_channel</title>
<polygon fill="none" stroke="black" points="400.195,-166 365.597,-184 296.403,-184 261.805,-166 296.403,-148 365.597,-148 400.195,-166"/>
<text text-anchor="middle" x="331" y="-162.3" font-family="Times,serif" font-size="14.00">mode channel</text>
</g>
<!-- state_agent&#45;&gt;render_channel -->
<g id="edge5" class="edge"><title>state_agent&#45;&gt;render_channel</title>
<path fill="none" stroke="black" d="M331,-235.597C331,-223.746 331,-207.817 331,-194.292"/>
<polygon fill="black" stroke="black" points="334.5,-194.084 331,-184.084 327.5,-194.084 334.5,-194.084"/>
<text text-anchor="middle" x="347.5" y="-206.3" font-family="Times,serif" font-size="14.00">watch</text>
</g>
<!-- layout -->
<g id="node2" class="node"><title>layout</title>
<polygon fill="none" stroke="black" points="243,-184 189,-184 189,-148 243,-148 243,-184"/>
<text text-anchor="middle" x="216" y="-162.3" font-family="Times,serif" font-size="14.00">layout</text>
</g>
<!-- display -->
<g id="node3" class="node"><title>display</title>
<polygon fill="none" stroke="black" points="266.5,-36 211.5,-36 211.5,-0 266.5,-0 266.5,-36"/>
<text text-anchor="middle" x="239" y="-14.3" font-family="Times,serif" font-size="14.00">display</text>
</g>
<!-- layout&#45;&gt;display -->
<g id="edge1" class="edge"><title>layout&#45;&gt;display</title>
<path fill="none" stroke="black" stroke-dasharray="5,2" d="M218.683,-147.966C222.609,-123.045 229.962,-76.374 234.662,-46.5372"/>
<polygon fill="black" stroke="black" points="238.164,-46.8007 236.262,-36.3779 231.249,-45.7114 238.164,-46.8007"/>
</g>
<!-- render_process -->
<g id="node5" class="node"><title>render_process</title>
<ellipse fill="none" stroke="black" cx="284" cy="-92" rx="39.9464" ry="18"/>
<text text-anchor="middle" x="284" y="-88.3" font-family="Times,serif" font-size="14.00">renderer</text>
</g>
<!-- layout&#45;&gt;render_process -->
<g id="edge3" class="edge"><title>layout&#45;&gt;render_process</title>
<path fill="none" stroke="black" d="M232.115,-147.937C241.003,-138.526 252.171,-126.701 261.867,-116.435"/>
<polygon fill="black" stroke="black" points="264.611,-118.627 268.932,-108.954 259.522,-113.821 264.611,-118.627"/>
</g>
<!-- render_channel&#45;&gt;render_process -->
<g id="edge2" class="edge"><title>render_channel&#45;&gt;render_process</title>
<path fill="none" stroke="black" d="M319.862,-147.937C314.042,-139.022 306.809,-127.942 300.366,-118.072"/>
<polygon fill="black" stroke="black" points="303.132,-115.906 294.735,-109.445 297.27,-119.732 303.132,-115.906"/>
</g>
<!-- render_process&#45;&gt;display -->
<g id="edge4" class="edge"><title>render_process&#45;&gt;display</title>
<path fill="none" stroke="black" d="M273.563,-74.3008C268.077,-65.5224 261.231,-54.5703 255.084,-44.7339"/>
<polygon fill="black" stroke="black" points="257.961,-42.7336 249.693,-36.1086 252.025,-46.4436 257.961,-42.7336"/>
</g>
<!-- input_mix -->
<g id="node6" class="node"><title>input_mix</title>
<ellipse fill="none" stroke="black" cx="232" cy="-497" rx="24.5455" ry="24.8972"/>
<text text-anchor="middle" x="232" y="-493.3" font-family="Times,serif" font-size="14.00">mix</text>
</g>
<!-- input_channel -->
<g id="node7" class="node"><title>input_channel</title>
<polygon fill="none" stroke="black" points="299.316,-416 265.658,-434 198.342,-434 164.684,-416 198.342,-398 265.658,-398 299.316,-416"/>
<text text-anchor="middle" x="232" y="-412.3" font-family="Times,serif" font-size="14.00">input channel</text>
</g>
<!-- input_mix&#45;&gt;input_channel -->
<g id="edge6" class="edge"><title>input_mix&#45;&gt;input_channel</title>
<path fill="none" stroke="black" d="M232,-472.297C232,-463.477 232,-453.399 232,-444.284"/>
<polygon fill="black" stroke="black" points="235.5,-444.159 232,-434.159 228.5,-444.159 235.5,-444.159"/>
</g>
<!-- input_processor -->
<g id="node14" class="node"><title>input_processor</title>
<ellipse fill="none" stroke="black" stroke-dasharray="5,2" cx="232" cy="-342" rx="64.4914" ry="18"/>
<text text-anchor="middle" x="232" y="-338.3" font-family="Times,serif" font-size="14.00">input processor</text>
</g>
<!-- input_channel&#45;&gt;input_processor -->
<g id="edge13" class="edge"><title>input_channel&#45;&gt;input_processor</title>
<path fill="none" stroke="black" d="M232,-397.937C232,-389.807 232,-379.876 232,-370.705"/>
<polygon fill="black" stroke="black" points="235.5,-370.441 232,-360.441 228.5,-370.441 235.5,-370.441"/>
</g>
<!-- timer_input -->
<g id="node8" class="node"><title>timer_input</title>
<ellipse fill="none" stroke="black" cx="68" cy="-652" rx="29.3479" ry="18"/>
<text text-anchor="middle" x="68" y="-648.3" font-family="Times,serif" font-size="14.00">timer</text>
</g>
<!-- timer_buffer -->
<g id="node9" class="node"><title>timer_buffer</title>
<polygon fill="none" stroke="black" points="135.943,-578 101.971,-596 34.0286,-596 0.057226,-578 34.0286,-560 101.971,-560 135.943,-578"/>
<text text-anchor="middle" x="68" y="-574.3" font-family="Times,serif" font-size="14.00">sliding&#45;buffer</text>
</g>
<!-- timer_input&#45;&gt;timer_buffer -->
<g id="edge7" class="edge"><title>timer_input&#45;&gt;timer_buffer</title>
<path fill="none" stroke="black" d="M68,-633.937C68,-625.807 68,-615.876 68,-606.705"/>
<polygon fill="black" stroke="black" points="71.5001,-606.441 68,-596.441 64.5001,-606.441 71.5001,-606.441"/>
</g>
<!-- timer_buffer&#45;&gt;input_mix -->
<g id="edge8" class="edge"><title>timer_buffer&#45;&gt;input_mix</title>
<path fill="none" stroke="black" d="M102.78,-560.246C131.882,-546.228 173.02,-526.411 201.007,-512.929"/>
<polygon fill="black" stroke="black" points="202.827,-515.938 210.317,-508.445 199.789,-509.631 202.827,-515.938"/>
</g>
<!-- button_input -->
<g id="node10" class="node"><title>button_input</title>
<ellipse fill="none" stroke="black" cx="232" cy="-652" rx="63.5411" ry="18"/>
<text text-anchor="middle" x="232" y="-648.3" font-family="Times,serif" font-size="14.00">NES controller</text>
</g>
<!-- button_buffer -->
<g id="node11" class="node"><title>button_buffer</title>
<polygon fill="none" stroke="black" points="308.951,-578 270.476,-596 193.524,-596 155.049,-578 193.524,-560 270.476,-560 308.951,-578"/>
<text text-anchor="middle" x="232" y="-574.3" font-family="Times,serif" font-size="14.00">dropping&#45;buffer</text>
</g>
<!-- button_input&#45;&gt;button_buffer -->
<g id="edge9" class="edge"><title>button_input&#45;&gt;button_buffer</title>
<path fill="none" stroke="black" d="M232,-633.937C232,-625.807 232,-615.876 232,-606.705"/>
<polygon fill="black" stroke="black" points="235.5,-606.441 232,-596.441 228.5,-606.441 235.5,-606.441"/>
</g>
<!-- button_buffer&#45;&gt;input_mix -->
<g id="edge10" class="edge"><title>button_buffer&#45;&gt;input_mix</title>
<path fill="none" stroke="black" d="M232,-559.858C232,-551.66 232,-541.546 232,-531.889"/>
<polygon fill="black" stroke="black" points="235.5,-531.701 232,-521.701 228.5,-531.701 235.5,-531.701"/>
</g>
<!-- audio_input -->
<g id="node12" class="node"><title>audio_input</title>
<ellipse fill="none" stroke="black" cx="396" cy="-652" rx="30.3206" ry="18"/>
<text text-anchor="middle" x="396" y="-648.3" font-family="Times,serif" font-size="14.00">audio</text>
</g>
<!-- audio_buffer -->
<g id="node13" class="node"><title>audio_buffer</title>
<polygon fill="none" stroke="black" points="463.943,-578 429.971,-596 362.029,-596 328.057,-578 362.029,-560 429.971,-560 463.943,-578"/>
<text text-anchor="middle" x="396" y="-574.3" font-family="Times,serif" font-size="14.00">sliding&#45;buffer</text>
</g>
<!-- audio_input&#45;&gt;audio_buffer -->
<g id="edge11" class="edge"><title>audio_input&#45;&gt;audio_buffer</title>
<path fill="none" stroke="black" d="M396,-633.937C396,-625.807 396,-615.876 396,-606.705"/>
<polygon fill="black" stroke="black" points="399.5,-606.441 396,-596.441 392.5,-606.441 399.5,-606.441"/>
</g>
<!-- audio_buffer&#45;&gt;input_mix -->
<g id="edge12" class="edge"><title>audio_buffer&#45;&gt;input_mix</title>
<path fill="none" stroke="black" d="M361.22,-560.246C332.118,-546.228 290.98,-526.411 262.993,-512.929"/>
<polygon fill="black" stroke="black" points="264.211,-509.631 253.683,-508.445 261.173,-515.938 264.211,-509.631"/>
</g>
<!-- input_processor&#45;&gt;state_agent -->
<g id="edge14" class="edge"><title>input_processor&#45;&gt;state_agent</title>
<path fill="none" stroke="black" d="M251.088,-324.418C266.347,-311.163 287.9,-292.44 304.778,-277.779"/>
<polygon fill="black" stroke="black" points="307.386,-280.15 312.64,-270.949 302.795,-274.865 307.386,-280.15"/>
<text text-anchor="middle" x="310.5" y="-294.3" font-family="Times,serif" font-size="14.00">handler</text>
</g>
<!-- ring_server -->
<g id="node15" class="node"><title>ring_server</title>
<ellipse fill="none" stroke="black" cx="364" cy="-342" rx="48.6179" ry="18"/>
<text text-anchor="middle" x="364" y="-338.3" font-family="Times,serif" font-size="14.00">ring server</text>
</g>
<!-- ring_server&#45;&gt;state_agent -->
<g id="edge15" class="edge"><title>ring_server&#45;&gt;state_agent</title>
<path fill="none" stroke="black" d="M357.48,-324.009C352.825,-311.877 346.472,-295.32 341.155,-281.465"/>
<polygon fill="black" stroke="black" points="344.356,-280.038 337.506,-271.956 337.821,-282.546 344.356,-280.038"/>
<text text-anchor="middle" x="371" y="-294.3" font-family="Times,serif" font-size="14.00">updates</text>
</g>
</g>
</svg>
